<?xml version="1.0" encoding="UTF-8" standalone="no"?>
<!DOCTYPE svg PUBLIC "-//W3C//DTD SVG 1.1//EN"
 "http://www.w3.org/Graphics/SVG/1.1/DTD/svg11.dtd">
<!-- Generated by graphviz version 2.46.1 (0)
 -->
<!-- Title: snakemake_dag Pages: 1 -->
<svg width="391pt" height="548pt"
 viewBox="0.00 0.00 391.00 548.00" xmlns="http://www.w3.org/2000/svg" xmlns:xlink="http://www.w3.org/1999/xlink">
<g id="graph0" class="graph" transform="scale(1 1) rotate(0) translate(4 544)">
<title>snakemake_dag</title>
<polygon fill="white" stroke="transparent" points="-4,4 -4,-544 387,-544 387,4 -4,4"/>
<!-- 0 -->
<g id="node1" class="node">
<title>0</title>
<path fill="none" stroke="#56d0d8" stroke-width="2" d="M97,-36C97,-36 12,-36 12,-36 6,-36 0,-30 0,-24 0,-24 0,-12 0,-12 0,-6 6,0 12,0 12,0 97,0 97,0 103,0 109,-6 109,-12 109,-12 109,-24 109,-24 109,-30 103,-36 97,-36"/>
<text text-anchor="middle" x="54.5" y="-15.5" font-family="sans" font-size="10.00">catenate_anc_fastas</text>
</g>
<!-- 1 -->
<g id="node2" class="node">
<title>1</title>
<path fill="none" stroke="#56d8c1" stroke-width="2" d="M189.5,-108C189.5,-108 99.5,-108 99.5,-108 93.5,-108 87.5,-102 87.5,-96 87.5,-96 87.5,-84 87.5,-84 87.5,-78 93.5,-72 99.5,-72 99.5,-72 189.5,-72 189.5,-72 195.5,-72 201.5,-78 201.5,-84 201.5,-84 201.5,-96 201.5,-96 201.5,-102 195.5,-108 189.5,-108"/>
<text text-anchor="middle" x="144.5" y="-87.5" font-family="sans" font-size="10.00">condense_anc_fastas</text>
</g>
<!-- 1&#45;&gt;0 -->
<g id="edge1" class="edge">
<title>1&#45;&gt;0</title>
<path fill="none" stroke="grey" stroke-width="2" d="M122.25,-71.7C110.92,-62.88 96.97,-52.03 84.68,-42.47"/>
<polygon fill="grey" stroke="grey" stroke-width="2" points="86.53,-39.48 76.49,-36.1 82.24,-45.01 86.53,-39.48"/>
</g>
<!-- 9 -->
<g id="node10" class="node">
<title>9</title>
<path fill="none" stroke="#68d856" stroke-width="2" d="M332,-36C332,-36 139,-36 139,-36 133,-36 127,-30 127,-24 127,-24 127,-12 127,-12 127,-6 133,0 139,0 139,0 332,0 332,0 338,0 344,-6 344,-12 344,-12 344,-24 344,-24 344,-30 338,-36 332,-36"/>
<text text-anchor="middle" x="235.5" y="-15.5" font-family="sans" font-size="10.00">catenate_pairwise_aligned_base_summaries</text>
</g>
<!-- 1&#45;&gt;9 -->
<g id="edge13" class="edge">
<title>1&#45;&gt;9</title>
<path fill="none" stroke="grey" stroke-width="2" d="M166.99,-71.7C178.46,-62.88 192.56,-52.03 204.98,-42.47"/>
<polygon fill="grey" stroke="grey" stroke-width="2" points="207.47,-44.98 213.26,-36.1 203.2,-39.43 207.47,-44.98"/>
</g>
<!-- 2 -->
<g id="node3" class="node">
<title>2</title>
<path fill="none" stroke="#5692d8" stroke-width="2" d="M172.5,-180C172.5,-180 116.5,-180 116.5,-180 110.5,-180 104.5,-174 104.5,-168 104.5,-168 104.5,-156 104.5,-156 104.5,-150 110.5,-144 116.5,-144 116.5,-144 172.5,-144 172.5,-144 178.5,-144 184.5,-150 184.5,-156 184.5,-156 184.5,-168 184.5,-168 184.5,-174 178.5,-180 172.5,-180"/>
<text text-anchor="middle" x="144.5" y="-159.5" font-family="sans" font-size="10.00">run_maf2fasta</text>
</g>
<!-- 2&#45;&gt;1 -->
<g id="edge2" class="edge">
<title>2&#45;&gt;1</title>
<path fill="none" stroke="grey" stroke-width="2" d="M144.5,-143.7C144.5,-135.98 144.5,-126.71 144.5,-118.11"/>
<polygon fill="grey" stroke="grey" stroke-width="2" points="148,-118.1 144.5,-108.1 141,-118.1 148,-118.1"/>
</g>
<!-- 3 -->
<g id="node4" class="node">
<title>3</title>
<path fill="none" stroke="#d87556" stroke-width="2" d="M161.5,-396C161.5,-396 43.5,-396 43.5,-396 37.5,-396 31.5,-390 31.5,-384 31.5,-384 31.5,-372 31.5,-372 31.5,-366 37.5,-360 43.5,-360 43.5,-360 161.5,-360 161.5,-360 167.5,-360 173.5,-366 173.5,-372 173.5,-372 173.5,-384 173.5,-384 173.5,-390 167.5,-396 161.5,-396"/>
<text text-anchor="middle" x="102.5" y="-375.5" font-family="sans" font-size="10.00">split_target_fasta_by_chrom</text>
</g>
<!-- 3&#45;&gt;2 -->
<g id="edge3" class="edge">
<title>3&#45;&gt;2</title>
<path fill="none" stroke="grey" stroke-width="2" d="M102.89,-359.77C103.93,-329.97 107.72,-267.09 121.5,-216 123.9,-207.09 127.55,-197.74 131.24,-189.42"/>
<polygon fill="grey" stroke="grey" stroke-width="2" points="134.48,-190.75 135.51,-180.2 128.13,-187.8 134.48,-190.75"/>
</g>
<!-- 7 -->
<g id="node8" class="node">
<title>7</title>
<path fill="none" stroke="#bed856" stroke-width="2" d="M214,-324C214,-324 159,-324 159,-324 153,-324 147,-318 147,-312 147,-312 147,-300 147,-300 147,-294 153,-288 159,-288 159,-288 214,-288 214,-288 220,-288 226,-294 226,-300 226,-300 226,-312 226,-312 226,-318 220,-324 214,-324"/>
<text text-anchor="middle" x="186.5" y="-303.5" font-family="sans" font-size="10.00">run_lastz_dos</text>
</g>
<!-- 3&#45;&gt;7 -->
<g id="edge9" class="edge">
<title>3&#45;&gt;7</title>
<path fill="none" stroke="grey" stroke-width="2" d="M123.26,-359.7C133.74,-350.97 146.61,-340.24 158,-330.75"/>
<polygon fill="grey" stroke="grey" stroke-width="2" points="160.53,-333.19 165.97,-324.1 156.05,-327.82 160.53,-333.19"/>
</g>
<!-- 4 -->
<g id="node5" class="node">
<title>4</title>
<path fill="none" stroke="#9fd856" stroke-width="2" d="M245,-540C245,-540 168,-540 168,-540 162,-540 156,-534 156,-528 156,-528 156,-516 156,-516 156,-510 162,-504 168,-504 168,-504 245,-504 245,-504 251,-504 257,-510 257,-516 257,-516 257,-528 257,-528 257,-534 251,-540 245,-540"/>
<text text-anchor="middle" x="206.5" y="-519.5" font-family="sans" font-size="10.00">download_genome</text>
</g>
<!-- 4&#45;&gt;3 -->
<g id="edge5" class="edge">
<title>4&#45;&gt;3</title>
<path fill="none" stroke="grey" stroke-width="2" d="M189.7,-504C180.1,-493.91 168.1,-480.66 158.5,-468 143.19,-447.81 128.02,-423.35 117.34,-405.18"/>
<polygon fill="grey" stroke="grey" stroke-width="2" points="120.23,-403.2 112.18,-396.32 114.18,-406.72 120.23,-403.2"/>
</g>
<!-- 5 -->
<g id="node6" class="node">
<title>5</title>
<path fill="none" stroke="#56b1d8" stroke-width="2" d="M234,-468C234,-468 179,-468 179,-468 173,-468 167,-462 167,-456 167,-456 167,-444 167,-444 167,-438 173,-432 179,-432 179,-432 234,-432 234,-432 240,-432 246,-438 246,-444 246,-444 246,-456 246,-456 246,-462 240,-468 234,-468"/>
<text text-anchor="middle" x="206.5" y="-447.5" font-family="sans" font-size="10.00">faidx_genome</text>
</g>
<!-- 4&#45;&gt;5 -->
<g id="edge7" class="edge">
<title>4&#45;&gt;5</title>
<path fill="none" stroke="grey" stroke-width="2" d="M206.5,-503.7C206.5,-495.98 206.5,-486.71 206.5,-478.11"/>
<polygon fill="grey" stroke="grey" stroke-width="2" points="210,-478.1 206.5,-468.1 203,-478.1 210,-478.1"/>
</g>
<!-- 8 -->
<g id="node9" class="node">
<title>8</title>
<path fill="none" stroke="#d8d356" stroke-width="2" d="M371,-396C371,-396 204,-396 204,-396 198,-396 192,-390 192,-384 192,-384 192,-372 192,-372 192,-366 198,-360 204,-360 204,-360 371,-360 371,-360 377,-360 383,-366 383,-372 383,-372 383,-384 383,-384 383,-390 377,-396 371,-396"/>
<text text-anchor="middle" x="287.5" y="-375.5" font-family="sans" font-size="10.00">extract_homologous_query_sequences</text>
</g>
<!-- 4&#45;&gt;8 -->
<g id="edge11" class="edge">
<title>4&#45;&gt;8</title>
<path fill="none" stroke="grey" stroke-width="2" d="M225.72,-503.85C235.69,-494.13 247.44,-481.28 255.5,-468 267.24,-448.67 275.61,-424.38 280.84,-406.06"/>
<polygon fill="grey" stroke="grey" stroke-width="2" points="284.24,-406.87 283.49,-396.3 277.49,-405.04 284.24,-406.87"/>
</g>
<!-- 5&#45;&gt;3 -->
<g id="edge6" class="edge">
<title>5&#45;&gt;3</title>
<path fill="none" stroke="grey" stroke-width="2" d="M181.06,-431.88C167.71,-422.89 151.18,-411.76 136.72,-402.03"/>
<polygon fill="grey" stroke="grey" stroke-width="2" points="138.29,-398.87 128.04,-396.19 134.38,-404.68 138.29,-398.87"/>
</g>
<!-- 5&#45;&gt;8 -->
<g id="edge12" class="edge">
<title>5&#45;&gt;8</title>
<path fill="none" stroke="grey" stroke-width="2" d="M226.52,-431.7C236.63,-422.97 249.04,-412.24 260.02,-402.75"/>
<polygon fill="grey" stroke="grey" stroke-width="2" points="262.43,-405.29 267.71,-396.1 257.85,-399.99 262.43,-405.29"/>
</g>
<!-- 6 -->
<g id="node7" class="node">
<title>6</title>
<path fill="none" stroke="#5673d8" stroke-width="2" d="M230,-252C230,-252 143,-252 143,-252 137,-252 131,-246 131,-240 131,-240 131,-228 131,-228 131,-222 137,-216 143,-216 143,-216 230,-216 230,-216 236,-216 242,-222 242,-228 242,-228 242,-240 242,-240 242,-246 236,-252 230,-252"/>
<text text-anchor="middle" x="186.5" y="-231.5" font-family="sans" font-size="10.00">run_single_cov2_dos</text>
</g>
<!-- 6&#45;&gt;2 -->
<g id="edge4" class="edge">
<title>6&#45;&gt;2</title>
<path fill="none" stroke="grey" stroke-width="2" d="M176.12,-215.7C171.24,-207.56 165.31,-197.69 159.92,-188.7"/>
<polygon fill="grey" stroke="grey" stroke-width="2" points="162.91,-186.88 154.76,-180.1 156.91,-190.48 162.91,-186.88"/>
</g>
<!-- 7&#45;&gt;6 -->
<g id="edge8" class="edge">
<title>7&#45;&gt;6</title>
<path fill="none" stroke="grey" stroke-width="2" d="M186.5,-287.7C186.5,-279.98 186.5,-270.71 186.5,-262.11"/>
<polygon fill="grey" stroke="grey" stroke-width="2" points="190,-262.1 186.5,-252.1 183,-262.1 190,-262.1"/>
</g>
<!-- 8&#45;&gt;7 -->
<g id="edge10" class="edge">
<title>8&#45;&gt;7</title>
<path fill="none" stroke="grey" stroke-width="2" d="M262.79,-359.88C249.83,-350.89 233.77,-339.76 219.73,-330.03"/>
<polygon fill="grey" stroke="grey" stroke-width="2" points="221.52,-327.01 211.3,-324.19 217.53,-332.76 221.52,-327.01"/>
</g>
</g>
</svg>
