<?xml version="1.0" encoding="UTF-8" standalone="no"?>
<!DOCTYPE svg PUBLIC "-//W3C//DTD SVG 1.1//EN"
 "http://www.w3.org/Graphics/SVG/1.1/DTD/svg11.dtd">
<!-- Generated by graphviz version 2.46.1 (0)
 -->
<!-- Title: snakemake_dag Pages: 1 -->
<svg width="306pt" height="476pt"
 viewBox="0.00 0.00 306.00 476.00" xmlns="http://www.w3.org/2000/svg" xmlns:xlink="http://www.w3.org/1999/xlink">
<g id="graph0" class="graph" transform="scale(1 1) rotate(0) translate(4 472)">
<title>snakemake_dag</title>
<polygon fill="white" stroke="transparent" points="-4,4 -4,-472 302,-472 302,4 -4,4"/>
<!-- 0 -->
<g id="node1" class="node">
<title>0</title>
<path fill="none" stroke="#567bd8" stroke-width="2" d="M124,-36C124,-36 18,-36 18,-36 12,-36 6,-30 6,-24 6,-24 6,-12 6,-12 6,-6 12,0 18,0 18,0 124,0 124,0 130,0 136,-6 136,-12 136,-12 136,-24 136,-24 136,-30 130,-36 124,-36"/>
<text text-anchor="middle" x="71" y="-15.5" font-family="sans" font-size="10.00">catenate_aligned_lengths</text>
</g>
<!-- 1 -->
<g id="node2" class="node">
<title>1</title>
<path fill="none" stroke="#56d87b" stroke-width="2" d="M120.5,-108C120.5,-108 39.5,-108 39.5,-108 33.5,-108 27.5,-102 27.5,-96 27.5,-96 27.5,-84 27.5,-84 27.5,-78 33.5,-72 39.5,-72 39.5,-72 120.5,-72 120.5,-72 126.5,-72 132.5,-78 132.5,-84 132.5,-84 132.5,-96 132.5,-96 132.5,-102 126.5,-108 120.5,-108"/>
<text text-anchor="middle" x="80" y="-87.5" font-family="sans" font-size="10.00">calc_aligned_length</text>
</g>
<!-- 1&#45;&gt;0 -->
<g id="edge1" class="edge">
<title>1&#45;&gt;0</title>
<path fill="none" stroke="grey" stroke-width="2" d="M77.78,-71.7C76.78,-63.98 75.59,-54.71 74.49,-46.11"/>
<polygon fill="grey" stroke="grey" stroke-width="2" points="77.95,-45.58 73.2,-36.1 71,-46.47 77.95,-45.58"/>
</g>
<!-- 2 -->
<g id="node3" class="node">
<title>2</title>
<path fill="none" stroke="#d89556" stroke-width="2" d="M180.5,-180C180.5,-180 115.5,-180 115.5,-180 109.5,-180 103.5,-174 103.5,-168 103.5,-168 103.5,-156 103.5,-156 103.5,-150 109.5,-144 115.5,-144 115.5,-144 180.5,-144 180.5,-144 186.5,-144 192.5,-150 192.5,-156 192.5,-156 192.5,-168 192.5,-168 192.5,-174 186.5,-180 180.5,-180"/>
<text text-anchor="middle" x="148" y="-159.5" font-family="sans" font-size="10.00">run_single_cov2</text>
</g>
<!-- 2&#45;&gt;1 -->
<g id="edge2" class="edge">
<title>2&#45;&gt;1</title>
<path fill="none" stroke="grey" stroke-width="2" d="M131.19,-143.7C122.87,-135.14 112.69,-124.66 103.61,-115.3"/>
<polygon fill="grey" stroke="grey" stroke-width="2" points="106.09,-112.84 96.62,-108.1 101.07,-117.72 106.09,-112.84"/>
</g>
<!-- 9 -->
<g id="node10" class="node">
<title>9</title>
<path fill="none" stroke="#d8b456" stroke-width="2" d="M274,-108C274,-108 168,-108 168,-108 162,-108 156,-102 156,-96 156,-96 156,-84 156,-84 156,-78 162,-72 168,-72 168,-72 274,-72 274,-72 280,-72 286,-78 286,-84 286,-84 286,-96 286,-96 286,-102 280,-108 274,-108"/>
<text text-anchor="middle" x="221" y="-87.5" font-family="sans" font-size="10.00">make_plotable_segments</text>
</g>
<!-- 2&#45;&gt;9 -->
<g id="edge12" class="edge">
<title>2&#45;&gt;9</title>
<path fill="none" stroke="grey" stroke-width="2" d="M166.04,-143.7C175.06,-135.05 186.12,-124.45 195.94,-115.03"/>
<polygon fill="grey" stroke="grey" stroke-width="2" points="198.37,-117.55 203.16,-108.1 193.52,-112.5 198.37,-117.55"/>
</g>
<!-- 3 -->
<g id="node4" class="node">
<title>3</title>
<path fill="none" stroke="#78d856" stroke-width="2" d="M164.5,-252C164.5,-252 131.5,-252 131.5,-252 125.5,-252 119.5,-246 119.5,-240 119.5,-240 119.5,-228 119.5,-228 119.5,-222 125.5,-216 131.5,-216 131.5,-216 164.5,-216 164.5,-216 170.5,-216 176.5,-222 176.5,-228 176.5,-228 176.5,-240 176.5,-240 176.5,-246 170.5,-252 164.5,-252"/>
<text text-anchor="middle" x="148" y="-231.5" font-family="sans" font-size="10.00">run_lastz</text>
</g>
<!-- 3&#45;&gt;2 -->
<g id="edge3" class="edge">
<title>3&#45;&gt;2</title>
<path fill="none" stroke="grey" stroke-width="2" d="M148,-215.7C148,-207.98 148,-198.71 148,-190.11"/>
<polygon fill="grey" stroke="grey" stroke-width="2" points="151.5,-190.1 148,-180.1 144.5,-190.1 151.5,-190.1"/>
</g>
<!-- 4 -->
<g id="node5" class="node">
<title>4</title>
<path fill="none" stroke="#b6d856" stroke-width="2" d="M130,-324C130,-324 12,-324 12,-324 6,-324 0,-318 0,-312 0,-312 0,-300 0,-300 0,-294 6,-288 12,-288 12,-288 130,-288 130,-288 136,-288 142,-294 142,-300 142,-300 142,-312 142,-312 142,-318 136,-324 130,-324"/>
<text text-anchor="middle" x="71" y="-303.5" font-family="sans" font-size="10.00">split_target_fasta_by_chrom</text>
</g>
<!-- 4&#45;&gt;3 -->
<g id="edge5" class="edge">
<title>4&#45;&gt;3</title>
<path fill="none" stroke="grey" stroke-width="2" d="M90.03,-287.7C99.54,-279.05 111.21,-268.45 121.57,-259.03"/>
<polygon fill="grey" stroke="grey" stroke-width="2" points="124.14,-261.42 129.19,-252.1 119.43,-256.24 124.14,-261.42"/>
</g>
<!-- 5 -->
<g id="node6" class="node">
<title>5</title>
<path fill="none" stroke="#56d8d8" stroke-width="2" d="M191.5,-468C191.5,-468 114.5,-468 114.5,-468 108.5,-468 102.5,-462 102.5,-456 102.5,-456 102.5,-444 102.5,-444 102.5,-438 108.5,-432 114.5,-432 114.5,-432 191.5,-432 191.5,-432 197.5,-432 203.5,-438 203.5,-444 203.5,-444 203.5,-456 203.5,-456 203.5,-462 197.5,-468 191.5,-468"/>
<text text-anchor="middle" x="153" y="-447.5" font-family="sans" font-size="10.00">download_genome</text>
</g>
<!-- 5&#45;&gt;4 -->
<g id="edge6" class="edge">
<title>5&#45;&gt;4</title>
<path fill="none" stroke="grey" stroke-width="2" d="M134.3,-431.72C124.56,-421.96 113.05,-409.12 105,-396 93.08,-376.58 84.15,-352.3 78.44,-334"/>
<polygon fill="grey" stroke="grey" stroke-width="2" points="81.74,-332.84 75.52,-324.26 75.03,-334.85 81.74,-332.84"/>
</g>
<!-- 6 -->
<g id="node7" class="node">
<title>6</title>
<path fill="none" stroke="#56d8b9" stroke-width="2" d="M180.5,-396C180.5,-396 125.5,-396 125.5,-396 119.5,-396 113.5,-390 113.5,-384 113.5,-384 113.5,-372 113.5,-372 113.5,-366 119.5,-360 125.5,-360 125.5,-360 180.5,-360 180.5,-360 186.5,-360 192.5,-366 192.5,-372 192.5,-372 192.5,-384 192.5,-384 192.5,-390 186.5,-396 180.5,-396"/>
<text text-anchor="middle" x="153" y="-375.5" font-family="sans" font-size="10.00">faidx_genome</text>
</g>
<!-- 5&#45;&gt;6 -->
<g id="edge8" class="edge">
<title>5&#45;&gt;6</title>
<path fill="none" stroke="grey" stroke-width="2" d="M153,-431.7C153,-423.98 153,-414.71 153,-406.11"/>
<polygon fill="grey" stroke="grey" stroke-width="2" points="156.5,-406.1 153,-396.1 149.5,-406.1 156.5,-406.1"/>
</g>
<!-- 7 -->
<g id="node8" class="node">
<title>7</title>
<path fill="none" stroke="#d87556" stroke-width="2" d="M279.5,-324C279.5,-324 172.5,-324 172.5,-324 166.5,-324 160.5,-318 160.5,-312 160.5,-312 160.5,-300 160.5,-300 160.5,-294 166.5,-288 172.5,-288 172.5,-288 279.5,-288 279.5,-288 285.5,-288 291.5,-294 291.5,-300 291.5,-300 291.5,-312 291.5,-312 291.5,-318 285.5,-324 279.5,-324"/>
<text text-anchor="middle" x="226" y="-303.5" font-family="sans" font-size="10.00">extract_query_sequences</text>
</g>
<!-- 5&#45;&gt;7 -->
<g id="edge9" class="edge">
<title>5&#45;&gt;7</title>
<path fill="none" stroke="grey" stroke-width="2" d="M173.14,-431.64C183.13,-422.05 194.61,-409.38 202,-396 212.61,-376.8 218.74,-352.64 222.14,-334.34"/>
<polygon fill="grey" stroke="grey" stroke-width="2" points="225.62,-334.77 223.85,-324.32 218.72,-333.59 225.62,-334.77"/>
</g>
<!-- 6&#45;&gt;4 -->
<g id="edge7" class="edge">
<title>6&#45;&gt;4</title>
<path fill="none" stroke="grey" stroke-width="2" d="M132.73,-359.7C122.5,-350.97 109.94,-340.24 98.82,-330.75"/>
<polygon fill="grey" stroke="grey" stroke-width="2" points="100.91,-327.94 91.04,-324.1 96.37,-333.26 100.91,-327.94"/>
</g>
<!-- 6&#45;&gt;7 -->
<g id="edge10" class="edge">
<title>6&#45;&gt;7</title>
<path fill="none" stroke="grey" stroke-width="2" d="M171.04,-359.7C180.06,-351.05 191.12,-340.45 200.94,-331.03"/>
<polygon fill="grey" stroke="grey" stroke-width="2" points="203.37,-333.55 208.16,-324.1 198.52,-328.5 203.37,-333.55"/>
</g>
<!-- 7&#45;&gt;3 -->
<g id="edge4" class="edge">
<title>7&#45;&gt;3</title>
<path fill="none" stroke="grey" stroke-width="2" d="M206.72,-287.7C197.08,-279.05 185.27,-268.45 174.77,-259.03"/>
<polygon fill="grey" stroke="grey" stroke-width="2" points="176.84,-256.18 167.06,-252.1 172.16,-261.39 176.84,-256.18"/>
</g>
<!-- 8 -->
<g id="node9" class="node">
<title>8</title>
<path fill="none" stroke="#d85656" stroke-width="2" d="M286,-36C286,-36 166,-36 166,-36 160,-36 154,-30 154,-24 154,-24 154,-12 154,-12 154,-6 160,0 166,0 166,0 286,0 286,0 292,0 298,-6 298,-12 298,-12 298,-24 298,-24 298,-30 292,-36 286,-36"/>
<text text-anchor="middle" x="226" y="-15.5" font-family="sans" font-size="10.00">catenate_plotable_segments</text>
</g>
<!-- 9&#45;&gt;8 -->
<g id="edge11" class="edge">
<title>9&#45;&gt;8</title>
<path fill="none" stroke="grey" stroke-width="2" d="M222.24,-71.7C222.79,-63.98 223.45,-54.71 224.06,-46.11"/>
<polygon fill="grey" stroke="grey" stroke-width="2" points="227.56,-46.33 224.78,-36.1 220.57,-45.83 227.56,-46.33"/>
</g>
</g>
</svg>
