<?xml version="1.0" encoding="UTF-8" standalone="no"?>
<!DOCTYPE svg PUBLIC "-//W3C//DTD SVG 1.1//EN"
 "http://www.w3.org/Graphics/SVG/1.1/DTD/svg11.dtd">
<!-- Generated by graphviz version 2.46.1 (0)
 -->
<!-- Title: snakemake_dag Pages: 1 -->
<svg width="445pt" height="548pt"
 viewBox="0.00 0.00 445.00 548.00" xmlns="http://www.w3.org/2000/svg" xmlns:xlink="http://www.w3.org/1999/xlink">
<g id="graph0" class="graph" transform="scale(1 1) rotate(0) translate(4 544)">
<title>snakemake_dag</title>
<polygon fill="white" stroke="transparent" points="-4,4 -4,-544 441,-544 441,4 -4,4"/>
<!-- 0 -->
<g id="node1" class="node">
<title>0</title>
<path fill="none" stroke="#56d8a9" stroke-width="2" d="M205,-36C205,-36 12,-36 12,-36 6,-36 0,-30 0,-24 0,-24 0,-12 0,-12 0,-6 6,0 12,0 12,0 205,0 205,0 211,0 217,-6 217,-12 217,-12 217,-24 217,-24 217,-30 211,-36 205,-36"/>
<text text-anchor="middle" x="108.5" y="-15.5" font-family="sans" font-size="10.00">catenate_pairwise_aligned_base_summaries</text>
</g>
<!-- 1 -->
<g id="node2" class="node">
<title>1</title>
<path fill="none" stroke="#70d856" stroke-width="2" d="M243.5,-108C243.5,-108 153.5,-108 153.5,-108 147.5,-108 141.5,-102 141.5,-96 141.5,-96 141.5,-84 141.5,-84 141.5,-78 147.5,-72 153.5,-72 153.5,-72 243.5,-72 243.5,-72 249.5,-72 255.5,-78 255.5,-84 255.5,-84 255.5,-96 255.5,-96 255.5,-102 249.5,-108 243.5,-108"/>
<text text-anchor="middle" x="198.5" y="-87.5" font-family="sans" font-size="10.00">condense_anc_fastas</text>
</g>
<!-- 1&#45;&gt;0 -->
<g id="edge1" class="edge">
<title>1&#45;&gt;0</title>
<path fill="none" stroke="grey" stroke-width="2" d="M176.25,-71.7C164.92,-62.88 150.97,-52.03 138.68,-42.47"/>
<polygon fill="grey" stroke="grey" stroke-width="2" points="140.53,-39.48 130.49,-36.1 136.24,-45.01 140.53,-39.48"/>
</g>
<!-- 9 -->
<g id="node10" class="node">
<title>9</title>
<path fill="none" stroke="#d87556" stroke-width="2" d="M332,-36C332,-36 247,-36 247,-36 241,-36 235,-30 235,-24 235,-24 235,-12 235,-12 235,-6 241,0 247,0 247,0 332,0 332,0 338,0 344,-6 344,-12 344,-12 344,-24 344,-24 344,-30 338,-36 332,-36"/>
<text text-anchor="middle" x="289.5" y="-15.5" font-family="sans" font-size="10.00">catenate_anc_fastas</text>
</g>
<!-- 1&#45;&gt;9 -->
<g id="edge13" class="edge">
<title>1&#45;&gt;9</title>
<path fill="none" stroke="grey" stroke-width="2" d="M220.99,-71.7C232.46,-62.88 246.56,-52.03 258.98,-42.47"/>
<polygon fill="grey" stroke="grey" stroke-width="2" points="261.47,-44.98 267.26,-36.1 257.2,-39.43 261.47,-44.98"/>
</g>
<!-- 2 -->
<g id="node3" class="node">
<title>2</title>
<path fill="none" stroke="#56d8c9" stroke-width="2" d="M226.5,-180C226.5,-180 170.5,-180 170.5,-180 164.5,-180 158.5,-174 158.5,-168 158.5,-168 158.5,-156 158.5,-156 158.5,-150 164.5,-144 170.5,-144 170.5,-144 226.5,-144 226.5,-144 232.5,-144 238.5,-150 238.5,-156 238.5,-156 238.5,-168 238.5,-168 238.5,-174 232.5,-180 226.5,-180"/>
<text text-anchor="middle" x="198.5" y="-159.5" font-family="sans" font-size="10.00">run_maf2fasta</text>
</g>
<!-- 2&#45;&gt;1 -->
<g id="edge2" class="edge">
<title>2&#45;&gt;1</title>
<path fill="none" stroke="grey" stroke-width="2" d="M198.5,-143.7C198.5,-135.98 198.5,-126.71 198.5,-118.11"/>
<polygon fill="grey" stroke="grey" stroke-width="2" points="202,-118.1 198.5,-108.1 195,-118.1 202,-118.1"/>
</g>
<!-- 3 -->
<g id="node4" class="node">
<title>3</title>
<path fill="none" stroke="#c6d856" stroke-width="2" d="M215.5,-396C215.5,-396 97.5,-396 97.5,-396 91.5,-396 85.5,-390 85.5,-384 85.5,-384 85.5,-372 85.5,-372 85.5,-366 91.5,-360 97.5,-360 97.5,-360 215.5,-360 215.5,-360 221.5,-360 227.5,-366 227.5,-372 227.5,-372 227.5,-384 227.5,-384 227.5,-390 221.5,-396 215.5,-396"/>
<text text-anchor="middle" x="156.5" y="-375.5" font-family="sans" font-size="10.00">split_target_fasta_by_chrom</text>
</g>
<!-- 3&#45;&gt;2 -->
<g id="edge4" class="edge">
<title>3&#45;&gt;2</title>
<path fill="none" stroke="grey" stroke-width="2" d="M156.89,-359.77C157.93,-329.97 161.72,-267.09 175.5,-216 177.9,-207.09 181.55,-197.74 185.24,-189.42"/>
<polygon fill="grey" stroke="grey" stroke-width="2" points="188.48,-190.75 189.51,-180.2 182.13,-187.8 188.48,-190.75"/>
</g>
<!-- 7 -->
<g id="node8" class="node">
<title>7</title>
<path fill="none" stroke="#8fd856" stroke-width="2" d="M268,-324C268,-324 213,-324 213,-324 207,-324 201,-318 201,-312 201,-312 201,-300 201,-300 201,-294 207,-288 213,-288 213,-288 268,-288 268,-288 274,-288 280,-294 280,-300 280,-300 280,-312 280,-312 280,-318 274,-324 268,-324"/>
<text text-anchor="middle" x="240.5" y="-303.5" font-family="sans" font-size="10.00">run_lastz_dos</text>
</g>
<!-- 3&#45;&gt;7 -->
<g id="edge10" class="edge">
<title>3&#45;&gt;7</title>
<path fill="none" stroke="grey" stroke-width="2" d="M177.26,-359.7C187.74,-350.97 200.61,-340.24 212,-330.75"/>
<polygon fill="grey" stroke="grey" stroke-width="2" points="214.53,-333.19 219.97,-324.1 210.05,-327.82 214.53,-333.19"/>
</g>
<!-- 4 -->
<g id="node5" class="node">
<title>4</title>
<path fill="none" stroke="#5673d8" stroke-width="2" d="M299,-540C299,-540 222,-540 222,-540 216,-540 210,-534 210,-528 210,-528 210,-516 210,-516 210,-510 216,-504 222,-504 222,-504 299,-504 299,-504 305,-504 311,-510 311,-516 311,-516 311,-528 311,-528 311,-534 305,-540 299,-540"/>
<text text-anchor="middle" x="260.5" y="-519.5" font-family="sans" font-size="10.00">download_genome</text>
</g>
<!-- 4&#45;&gt;3 -->
<g id="edge6" class="edge">
<title>4&#45;&gt;3</title>
<path fill="none" stroke="grey" stroke-width="2" d="M243.7,-504C234.1,-493.91 222.1,-480.66 212.5,-468 197.19,-447.81 182.02,-423.35 171.34,-405.18"/>
<polygon fill="grey" stroke="grey" stroke-width="2" points="174.23,-403.2 166.18,-396.32 168.18,-406.72 174.23,-403.2"/>
</g>
<!-- 5 -->
<g id="node6" class="node">
<title>5</title>
<path fill="none" stroke="#56d873" stroke-width="2" d="M288,-468C288,-468 233,-468 233,-468 227,-468 221,-462 221,-456 221,-456 221,-444 221,-444 221,-438 227,-432 233,-432 233,-432 288,-432 288,-432 294,-432 300,-438 300,-444 300,-444 300,-456 300,-456 300,-462 294,-468 288,-468"/>
<text text-anchor="middle" x="260.5" y="-447.5" font-family="sans" font-size="10.00">faidx_genome</text>
</g>
<!-- 4&#45;&gt;5 -->
<g id="edge7" class="edge">
<title>4&#45;&gt;5</title>
<path fill="none" stroke="grey" stroke-width="2" d="M260.5,-503.7C260.5,-495.98 260.5,-486.71 260.5,-478.11"/>
<polygon fill="grey" stroke="grey" stroke-width="2" points="264,-478.1 260.5,-468.1 257,-478.1 264,-478.1"/>
</g>
<!-- 8 -->
<g id="node9" class="node">
<title>8</title>
<path fill="none" stroke="#d8ac56" stroke-width="2" d="M425,-396C425,-396 258,-396 258,-396 252,-396 246,-390 246,-384 246,-384 246,-372 246,-372 246,-366 252,-360 258,-360 258,-360 425,-360 425,-360 431,-360 437,-366 437,-372 437,-372 437,-384 437,-384 437,-390 431,-396 425,-396"/>
<text text-anchor="middle" x="341.5" y="-375.5" font-family="sans" font-size="10.00">extract_homologous_query_sequences</text>
</g>
<!-- 4&#45;&gt;8 -->
<g id="edge12" class="edge">
<title>4&#45;&gt;8</title>
<path fill="none" stroke="grey" stroke-width="2" d="M279.72,-503.85C289.69,-494.13 301.44,-481.28 309.5,-468 321.24,-448.67 329.61,-424.38 334.84,-406.06"/>
<polygon fill="grey" stroke="grey" stroke-width="2" points="338.24,-406.87 337.49,-396.3 331.49,-405.04 338.24,-406.87"/>
</g>
<!-- 5&#45;&gt;3 -->
<g id="edge5" class="edge">
<title>5&#45;&gt;3</title>
<path fill="none" stroke="grey" stroke-width="2" d="M235.06,-431.88C221.71,-422.89 205.18,-411.76 190.72,-402.03"/>
<polygon fill="grey" stroke="grey" stroke-width="2" points="192.29,-398.87 182.04,-396.19 188.38,-404.68 192.29,-398.87"/>
</g>
<!-- 5&#45;&gt;8 -->
<g id="edge11" class="edge">
<title>5&#45;&gt;8</title>
<path fill="none" stroke="grey" stroke-width="2" d="M280.52,-431.7C290.63,-422.97 303.04,-412.24 314.02,-402.75"/>
<polygon fill="grey" stroke="grey" stroke-width="2" points="316.43,-405.29 321.71,-396.1 311.85,-399.99 316.43,-405.29"/>
</g>
<!-- 6 -->
<g id="node7" class="node">
<title>6</title>
<path fill="none" stroke="#56c9d8" stroke-width="2" d="M284,-252C284,-252 197,-252 197,-252 191,-252 185,-246 185,-240 185,-240 185,-228 185,-228 185,-222 191,-216 197,-216 197,-216 284,-216 284,-216 290,-216 296,-222 296,-228 296,-228 296,-240 296,-240 296,-246 290,-252 284,-252"/>
<text text-anchor="middle" x="240.5" y="-231.5" font-family="sans" font-size="10.00">run_single_cov2_dos</text>
</g>
<!-- 6&#45;&gt;2 -->
<g id="edge3" class="edge">
<title>6&#45;&gt;2</title>
<path fill="none" stroke="grey" stroke-width="2" d="M230.12,-215.7C225.24,-207.56 219.31,-197.69 213.92,-188.7"/>
<polygon fill="grey" stroke="grey" stroke-width="2" points="216.91,-186.88 208.76,-180.1 210.91,-190.48 216.91,-186.88"/>
</g>
<!-- 7&#45;&gt;6 -->
<g id="edge8" class="edge">
<title>7&#45;&gt;6</title>
<path fill="none" stroke="grey" stroke-width="2" d="M240.5,-287.7C240.5,-279.98 240.5,-270.71 240.5,-262.11"/>
<polygon fill="grey" stroke="grey" stroke-width="2" points="244,-262.1 240.5,-252.1 237,-262.1 244,-262.1"/>
</g>
<!-- 8&#45;&gt;7 -->
<g id="edge9" class="edge">
<title>8&#45;&gt;7</title>
<path fill="none" stroke="grey" stroke-width="2" d="M316.79,-359.88C303.83,-350.89 287.77,-339.76 273.73,-330.03"/>
<polygon fill="grey" stroke="grey" stroke-width="2" points="275.52,-327.01 265.3,-324.19 271.53,-332.76 275.52,-327.01"/>
</g>
</g>
</svg>
